<mxfile host="Electron" modified="2023-06-13T17:28:49.580Z" agent="Mozilla/5.0 (Windows NT 10.0; Win64; x64) AppleWebKit/537.36 (KHTML, like Gecko) draw.io/21.3.7 Chrome/112.0.5615.204 Electron/24.5.0 Safari/537.36" etag="cPlaEqfp1mtorO7sBP8d" version="21.3.7" type="device">
  <diagram name="Page-1" id="7YlPffgC-rGrnvoq_Qv7">
    <mxGraphModel dx="915" dy="828" grid="1" gridSize="10" guides="1" tooltips="1" connect="1" arrows="1" fold="1" page="1" pageScale="1" pageWidth="850" pageHeight="1100" math="0" shadow="0">
      <root>
        <mxCell id="0" />
        <mxCell id="1" parent="0" />
        <mxCell id="7ODVU_EfmexJQ0koivd1-1" value="&lt;font style=&quot;font-size: 18px;&quot;&gt;Sales-Offices&lt;/font&gt;" style="rounded=0;whiteSpace=wrap;html=1;labelBackgroundColor=none;fillColor=#FAE5C7;strokeColor=#0F8B8D;fontColor=#143642;" parent="1" vertex="1">
          <mxGeometry x="110" y="150" width="120" height="50" as="geometry" />
        </mxCell>
        <mxCell id="7ODVU_EfmexJQ0koivd1-2" value="office-number" style="ellipse;whiteSpace=wrap;html=1;labelBackgroundColor=none;fillColor=#FAE5C7;strokeColor=#0F8B8D;fontColor=#143642;" parent="1" vertex="1">
          <mxGeometry x="20" y="90" width="80" height="40" as="geometry" />
        </mxCell>
        <mxCell id="7ODVU_EfmexJQ0koivd1-3" value="Locations" style="ellipse;whiteSpace=wrap;html=1;labelBackgroundColor=none;fillColor=#FAE5C7;strokeColor=#0F8B8D;fontColor=#143642;" parent="1" vertex="1">
          <mxGeometry x="140" y="70" width="80" height="40" as="geometry" />
        </mxCell>
        <mxCell id="7ODVU_EfmexJQ0koivd1-4" value="&lt;font style=&quot;font-size: 18px;&quot;&gt;Empolyees&lt;/font&gt;" style="rounded=0;whiteSpace=wrap;html=1;labelBackgroundColor=none;fillColor=#FAE5C7;strokeColor=#0F8B8D;fontColor=#143642;" parent="1" vertex="1">
          <mxGeometry x="560" y="150" width="120" height="50" as="geometry" />
        </mxCell>
        <mxCell id="7ODVU_EfmexJQ0koivd1-5" value="id" style="ellipse;whiteSpace=wrap;html=1;labelBackgroundColor=none;fillColor=#FAE5C7;strokeColor=#0F8B8D;fontColor=#143642;" parent="1" vertex="1">
          <mxGeometry x="530" y="70" width="70" height="40" as="geometry" />
        </mxCell>
        <mxCell id="7ODVU_EfmexJQ0koivd1-6" value="name" style="ellipse;whiteSpace=wrap;html=1;labelBackgroundColor=none;fillColor=#FAE5C7;strokeColor=#0F8B8D;fontColor=#143642;" parent="1" vertex="1">
          <mxGeometry x="640" y="70" width="70" height="40" as="geometry" />
        </mxCell>
        <mxCell id="7ODVU_EfmexJQ0koivd1-8" value="&lt;font style=&quot;font-size: 18px;&quot;&gt;Properties&lt;/font&gt;" style="rounded=0;whiteSpace=wrap;html=1;labelBackgroundColor=none;fillColor=#FAE5C7;strokeColor=#0F8B8D;fontColor=#143642;" parent="1" vertex="1">
          <mxGeometry x="110" y="410" width="120" height="50" as="geometry" />
        </mxCell>
        <mxCell id="7ODVU_EfmexJQ0koivd1-9" value="id" style="ellipse;whiteSpace=wrap;html=1;labelBackgroundColor=none;fillColor=#FAE5C7;strokeColor=#0F8B8D;fontColor=#143642;" parent="1" vertex="1">
          <mxGeometry x="20" y="480" width="70" height="40" as="geometry" />
        </mxCell>
        <mxCell id="7ODVU_EfmexJQ0koivd1-10" value="location" style="ellipse;whiteSpace=wrap;html=1;labelBackgroundColor=none;fillColor=#FAE5C7;strokeColor=#0F8B8D;fontColor=#143642;" parent="1" vertex="1">
          <mxGeometry x="120" y="510" width="60" height="30" as="geometry" />
        </mxCell>
        <mxCell id="7ODVU_EfmexJQ0koivd1-11" value="address" style="ellipse;whiteSpace=wrap;html=1;labelBackgroundColor=none;fillColor=#FAE5C7;strokeColor=#0F8B8D;fontColor=#143642;" parent="1" vertex="1">
          <mxGeometry x="50" y="550" width="60" height="30" as="geometry" />
        </mxCell>
        <mxCell id="7ODVU_EfmexJQ0koivd1-12" value="city" style="ellipse;whiteSpace=wrap;html=1;labelBackgroundColor=none;fillColor=#FAE5C7;strokeColor=#0F8B8D;fontColor=#143642;" parent="1" vertex="1">
          <mxGeometry x="120" y="580" width="60" height="30" as="geometry" />
        </mxCell>
        <mxCell id="7ODVU_EfmexJQ0koivd1-13" value="state" style="ellipse;whiteSpace=wrap;html=1;labelBackgroundColor=none;fillColor=#FAE5C7;strokeColor=#0F8B8D;fontColor=#143642;" parent="1" vertex="1">
          <mxGeometry x="190" y="560" width="60" height="30" as="geometry" />
        </mxCell>
        <mxCell id="7ODVU_EfmexJQ0koivd1-14" value="Zip-Code" style="ellipse;whiteSpace=wrap;html=1;labelBackgroundColor=none;fillColor=#FAE5C7;strokeColor=#0F8B8D;fontColor=#143642;" parent="1" vertex="1">
          <mxGeometry x="230" y="520" width="60" height="30" as="geometry" />
        </mxCell>
        <mxCell id="7ODVU_EfmexJQ0koivd1-15" value="&lt;font style=&quot;font-size: 18px;&quot;&gt;Owners&lt;/font&gt;" style="rounded=0;whiteSpace=wrap;html=1;labelBackgroundColor=none;fillColor=#FAE5C7;strokeColor=#0F8B8D;fontColor=#143642;" parent="1" vertex="1">
          <mxGeometry x="560" y="410" width="120" height="50" as="geometry" />
        </mxCell>
        <mxCell id="7ODVU_EfmexJQ0koivd1-16" value="Owner-id" style="ellipse;whiteSpace=wrap;html=1;labelBackgroundColor=none;fillColor=#FAE5C7;strokeColor=#0F8B8D;fontColor=#143642;" parent="1" vertex="1">
          <mxGeometry x="510" y="520" width="80" height="40" as="geometry" />
        </mxCell>
        <mxCell id="7ODVU_EfmexJQ0koivd1-17" value="name" style="ellipse;whiteSpace=wrap;html=1;labelBackgroundColor=none;fillColor=#FAE5C7;strokeColor=#0F8B8D;fontColor=#143642;" parent="1" vertex="1">
          <mxGeometry x="630" y="520" width="60" height="30" as="geometry" />
        </mxCell>
        <mxCell id="7ODVU_EfmexJQ0koivd1-18" value="Work" style="rhombus;whiteSpace=wrap;html=1;labelBackgroundColor=none;fillColor=#FAE5C7;strokeColor=#0F8B8D;fontColor=#143642;" parent="1" vertex="1">
          <mxGeometry x="360" y="120" width="80" height="60" as="geometry" />
        </mxCell>
        <mxCell id="7ODVU_EfmexJQ0koivd1-19" value="" style="endArrow=none;html=1;rounded=0;exitX=0.416;exitY=1.004;exitDx=0;exitDy=0;exitPerimeter=0;entryX=0.5;entryY=0;entryDx=0;entryDy=0;labelBackgroundColor=none;strokeColor=#A8201A;fontColor=default;" parent="1" source="7ODVU_EfmexJQ0koivd1-8" target="7ODVU_EfmexJQ0koivd1-10" edge="1">
          <mxGeometry width="50" height="50" relative="1" as="geometry">
            <mxPoint x="400" y="350" as="sourcePoint" />
            <mxPoint x="160" y="510" as="targetPoint" />
          </mxGeometry>
        </mxCell>
        <mxCell id="7ODVU_EfmexJQ0koivd1-20" value="" style="endArrow=none;html=1;rounded=0;exitX=0.706;exitY=0.059;exitDx=0;exitDy=0;exitPerimeter=0;entryX=0;entryY=1;entryDx=0;entryDy=0;labelBackgroundColor=none;strokeColor=#A8201A;fontColor=default;" parent="1" source="7ODVU_EfmexJQ0koivd1-11" target="7ODVU_EfmexJQ0koivd1-10" edge="1">
          <mxGeometry width="50" height="50" relative="1" as="geometry">
            <mxPoint x="170" y="470" as="sourcePoint" />
            <mxPoint x="167" y="517" as="targetPoint" />
          </mxGeometry>
        </mxCell>
        <mxCell id="7ODVU_EfmexJQ0koivd1-21" value="" style="endArrow=none;html=1;rounded=0;exitX=0.5;exitY=0;exitDx=0;exitDy=0;entryX=0.5;entryY=1;entryDx=0;entryDy=0;labelBackgroundColor=none;strokeColor=#A8201A;fontColor=default;" parent="1" source="7ODVU_EfmexJQ0koivd1-12" target="7ODVU_EfmexJQ0koivd1-10" edge="1">
          <mxGeometry width="50" height="50" relative="1" as="geometry">
            <mxPoint x="170" y="470" as="sourcePoint" />
            <mxPoint x="160" y="520" as="targetPoint" />
          </mxGeometry>
        </mxCell>
        <mxCell id="7ODVU_EfmexJQ0koivd1-22" value="" style="endArrow=none;html=1;rounded=0;exitX=0;exitY=0;exitDx=0;exitDy=0;entryX=1;entryY=1;entryDx=0;entryDy=0;labelBackgroundColor=none;strokeColor=#A8201A;fontColor=default;" parent="1" source="7ODVU_EfmexJQ0koivd1-13" target="7ODVU_EfmexJQ0koivd1-10" edge="1">
          <mxGeometry width="50" height="50" relative="1" as="geometry">
            <mxPoint x="160" y="590" as="sourcePoint" />
            <mxPoint x="160" y="550" as="targetPoint" />
          </mxGeometry>
        </mxCell>
        <mxCell id="7ODVU_EfmexJQ0koivd1-23" value="" style="endArrow=none;html=1;rounded=0;exitX=0;exitY=0.5;exitDx=0;exitDy=0;entryX=1;entryY=0.5;entryDx=0;entryDy=0;labelBackgroundColor=none;strokeColor=#A8201A;fontColor=default;" parent="1" source="7ODVU_EfmexJQ0koivd1-14" target="7ODVU_EfmexJQ0koivd1-10" edge="1">
          <mxGeometry width="50" height="50" relative="1" as="geometry">
            <mxPoint x="209" y="574" as="sourcePoint" />
            <mxPoint x="181" y="546" as="targetPoint" />
          </mxGeometry>
        </mxCell>
        <mxCell id="7ODVU_EfmexJQ0koivd1-24" value="" style="endArrow=none;html=1;rounded=0;exitX=0;exitY=1;exitDx=0;exitDy=0;entryX=0.746;entryY=0.081;entryDx=0;entryDy=0;entryPerimeter=0;labelBackgroundColor=none;strokeColor=#A8201A;fontColor=default;" parent="1" source="7ODVU_EfmexJQ0koivd1-8" target="7ODVU_EfmexJQ0koivd1-9" edge="1">
          <mxGeometry width="50" height="50" relative="1" as="geometry">
            <mxPoint x="240" y="545" as="sourcePoint" />
            <mxPoint x="190" y="535" as="targetPoint" />
          </mxGeometry>
        </mxCell>
        <mxCell id="7ODVU_EfmexJQ0koivd1-25" value="" style="endArrow=none;html=1;rounded=0;exitX=0.162;exitY=0.987;exitDx=0;exitDy=0;entryX=0.631;entryY=-0.007;entryDx=0;entryDy=0;entryPerimeter=0;exitPerimeter=0;labelBackgroundColor=none;strokeColor=#A8201A;fontColor=default;" parent="1" source="7ODVU_EfmexJQ0koivd1-15" target="7ODVU_EfmexJQ0koivd1-16" edge="1">
          <mxGeometry width="50" height="50" relative="1" as="geometry">
            <mxPoint x="120" y="470" as="sourcePoint" />
            <mxPoint x="75" y="492" as="targetPoint" />
          </mxGeometry>
        </mxCell>
        <mxCell id="7ODVU_EfmexJQ0koivd1-26" value="" style="endArrow=none;html=1;rounded=0;exitX=0.75;exitY=1;exitDx=0;exitDy=0;entryX=0.5;entryY=0;entryDx=0;entryDy=0;labelBackgroundColor=none;strokeColor=#A8201A;fontColor=default;" parent="1" source="7ODVU_EfmexJQ0koivd1-15" target="7ODVU_EfmexJQ0koivd1-17" edge="1">
          <mxGeometry width="50" height="50" relative="1" as="geometry">
            <mxPoint x="589" y="469" as="sourcePoint" />
            <mxPoint x="578" y="526" as="targetPoint" />
          </mxGeometry>
        </mxCell>
        <mxCell id="7ODVU_EfmexJQ0koivd1-27" value="" style="endArrow=none;html=1;rounded=0;entryX=0.5;entryY=1;entryDx=0;entryDy=0;exitX=0.25;exitY=0;exitDx=0;exitDy=0;labelBackgroundColor=none;strokeColor=#A8201A;fontColor=default;" parent="1" source="7ODVU_EfmexJQ0koivd1-4" target="7ODVU_EfmexJQ0koivd1-5" edge="1">
          <mxGeometry width="50" height="50" relative="1" as="geometry">
            <mxPoint x="400" y="350" as="sourcePoint" />
            <mxPoint x="450" y="300" as="targetPoint" />
          </mxGeometry>
        </mxCell>
        <mxCell id="7ODVU_EfmexJQ0koivd1-28" value="" style="endArrow=none;html=1;rounded=0;entryX=0.367;entryY=1;entryDx=0;entryDy=0;exitX=0.75;exitY=0;exitDx=0;exitDy=0;entryPerimeter=0;labelBackgroundColor=none;strokeColor=#A8201A;fontColor=default;" parent="1" source="7ODVU_EfmexJQ0koivd1-4" target="7ODVU_EfmexJQ0koivd1-6" edge="1">
          <mxGeometry width="50" height="50" relative="1" as="geometry">
            <mxPoint x="600" y="160" as="sourcePoint" />
            <mxPoint x="575" y="120" as="targetPoint" />
          </mxGeometry>
        </mxCell>
        <mxCell id="7ODVU_EfmexJQ0koivd1-29" value="" style="endArrow=none;html=1;rounded=0;entryX=0.5;entryY=1;entryDx=0;entryDy=0;exitX=0.623;exitY=0.053;exitDx=0;exitDy=0;exitPerimeter=0;labelBackgroundColor=none;strokeColor=#A8201A;fontColor=default;" parent="1" source="7ODVU_EfmexJQ0koivd1-1" target="7ODVU_EfmexJQ0koivd1-3" edge="1">
          <mxGeometry width="50" height="50" relative="1" as="geometry">
            <mxPoint x="400" y="350" as="sourcePoint" />
            <mxPoint x="450" y="300" as="targetPoint" />
          </mxGeometry>
        </mxCell>
        <mxCell id="7ODVU_EfmexJQ0koivd1-30" value="" style="endArrow=none;html=1;rounded=0;exitX=0;exitY=0;exitDx=0;exitDy=0;labelBackgroundColor=none;strokeColor=#A8201A;fontColor=default;" parent="1" source="7ODVU_EfmexJQ0koivd1-1" target="7ODVU_EfmexJQ0koivd1-2" edge="1">
          <mxGeometry width="50" height="50" relative="1" as="geometry">
            <mxPoint x="195" y="163" as="sourcePoint" />
            <mxPoint x="190" y="120" as="targetPoint" />
          </mxGeometry>
        </mxCell>
        <mxCell id="7ODVU_EfmexJQ0koivd1-31" value="manage" style="rhombus;whiteSpace=wrap;html=1;labelBackgroundColor=none;fillColor=#FAE5C7;strokeColor=#0F8B8D;fontColor=#143642;" parent="1" vertex="1">
          <mxGeometry x="360" y="210" width="80" height="60" as="geometry" />
        </mxCell>
        <mxCell id="7ODVU_EfmexJQ0koivd1-32" value="" style="endArrow=none;html=1;rounded=0;entryX=1;entryY=0.25;entryDx=0;entryDy=0;exitX=0;exitY=0.5;exitDx=0;exitDy=0;labelBackgroundColor=none;strokeColor=#A8201A;fontColor=default;" parent="1" source="7ODVU_EfmexJQ0koivd1-18" target="7ODVU_EfmexJQ0koivd1-1" edge="1">
          <mxGeometry width="50" height="50" relative="1" as="geometry">
            <mxPoint x="400" y="350" as="sourcePoint" />
            <mxPoint x="450" y="300" as="targetPoint" />
          </mxGeometry>
        </mxCell>
        <mxCell id="7ODVU_EfmexJQ0koivd1-33" value="" style="endArrow=none;html=1;rounded=0;exitX=0;exitY=0.5;exitDx=0;exitDy=0;entryX=1;entryY=0.5;entryDx=0;entryDy=0;labelBackgroundColor=none;strokeColor=#A8201A;fontColor=default;" parent="1" source="7ODVU_EfmexJQ0koivd1-4" target="7ODVU_EfmexJQ0koivd1-18" edge="1">
          <mxGeometry width="50" height="50" relative="1" as="geometry">
            <mxPoint x="550" y="170" as="sourcePoint" />
            <mxPoint x="240" y="173" as="targetPoint" />
          </mxGeometry>
        </mxCell>
        <mxCell id="7ODVU_EfmexJQ0koivd1-36" value="" style="endArrow=none;html=1;rounded=0;entryX=1;entryY=0.75;entryDx=0;entryDy=0;exitX=0;exitY=0.5;exitDx=0;exitDy=0;labelBackgroundColor=none;strokeColor=#A8201A;fontColor=default;" parent="1" source="7ODVU_EfmexJQ0koivd1-31" target="7ODVU_EfmexJQ0koivd1-1" edge="1">
          <mxGeometry width="50" height="50" relative="1" as="geometry">
            <mxPoint x="370" y="160" as="sourcePoint" />
            <mxPoint x="240" y="173" as="targetPoint" />
          </mxGeometry>
        </mxCell>
        <mxCell id="7ODVU_EfmexJQ0koivd1-37" value="" style="endArrow=none;html=1;rounded=0;exitX=0.899;exitY=0.437;exitDx=0;exitDy=0;exitPerimeter=0;labelBackgroundColor=none;strokeColor=#A8201A;fontColor=default;" parent="1" source="7ODVU_EfmexJQ0koivd1-31" target="7ODVU_EfmexJQ0koivd1-4" edge="1">
          <mxGeometry width="50" height="50" relative="1" as="geometry">
            <mxPoint x="370" y="250" as="sourcePoint" />
            <mxPoint x="240" y="198" as="targetPoint" />
          </mxGeometry>
        </mxCell>
        <mxCell id="7ODVU_EfmexJQ0koivd1-38" value="1" style="text;html=1;align=center;verticalAlign=middle;resizable=0;points=[];autosize=1;strokeColor=none;fillColor=none;labelBackgroundColor=none;fontColor=#143642;" parent="1" vertex="1">
          <mxGeometry x="285" y="128" width="30" height="30" as="geometry" />
        </mxCell>
        <mxCell id="7ODVU_EfmexJQ0koivd1-39" value="m" style="text;html=1;align=center;verticalAlign=middle;resizable=0;points=[];autosize=1;strokeColor=none;fillColor=none;labelBackgroundColor=none;fontColor=#143642;" parent="1" vertex="1">
          <mxGeometry x="495" y="138" width="30" height="30" as="geometry" />
        </mxCell>
        <mxCell id="7ODVU_EfmexJQ0koivd1-40" value="1" style="text;html=1;align=center;verticalAlign=middle;resizable=0;points=[];autosize=1;strokeColor=none;fillColor=none;labelBackgroundColor=none;fontColor=#143642;" parent="1" vertex="1">
          <mxGeometry x="295" y="188" width="30" height="30" as="geometry" />
        </mxCell>
        <mxCell id="7ODVU_EfmexJQ0koivd1-41" value="1" style="text;html=1;align=center;verticalAlign=middle;resizable=0;points=[];autosize=1;strokeColor=none;fillColor=none;labelBackgroundColor=none;fontColor=#143642;" parent="1" vertex="1">
          <mxGeometry x="465" y="198" width="30" height="30" as="geometry" />
        </mxCell>
        <mxCell id="7ODVU_EfmexJQ0koivd1-42" value="Owned-by" style="rhombus;whiteSpace=wrap;html=1;labelBackgroundColor=none;fillColor=#FAE5C7;strokeColor=#0F8B8D;fontColor=#143642;" parent="1" vertex="1">
          <mxGeometry x="370" y="405" width="80" height="60" as="geometry" />
        </mxCell>
        <mxCell id="7ODVU_EfmexJQ0koivd1-43" value="" style="endArrow=none;html=1;rounded=0;exitX=1;exitY=0.5;exitDx=0;exitDy=0;labelBackgroundColor=none;strokeColor=#A8201A;fontColor=default;" parent="1" source="7ODVU_EfmexJQ0koivd1-8" target="7ODVU_EfmexJQ0koivd1-42" edge="1">
          <mxGeometry width="50" height="50" relative="1" as="geometry">
            <mxPoint x="400" y="350" as="sourcePoint" />
            <mxPoint x="450" y="300" as="targetPoint" />
          </mxGeometry>
        </mxCell>
        <mxCell id="7ODVU_EfmexJQ0koivd1-44" value="" style="endArrow=none;html=1;rounded=0;exitX=1;exitY=0.5;exitDx=0;exitDy=0;labelBackgroundColor=none;strokeColor=#A8201A;fontColor=default;" parent="1" source="7ODVU_EfmexJQ0koivd1-42" target="7ODVU_EfmexJQ0koivd1-15" edge="1">
          <mxGeometry width="50" height="50" relative="1" as="geometry">
            <mxPoint x="240" y="445" as="sourcePoint" />
            <mxPoint x="380" y="445" as="targetPoint" />
          </mxGeometry>
        </mxCell>
        <mxCell id="7ODVU_EfmexJQ0koivd1-45" value="m" style="text;html=1;align=center;verticalAlign=middle;resizable=0;points=[];autosize=1;strokeColor=none;fillColor=none;labelBackgroundColor=none;fontColor=#143642;" parent="1" vertex="1">
          <mxGeometry x="295" y="398" width="30" height="30" as="geometry" />
        </mxCell>
        <mxCell id="7ODVU_EfmexJQ0koivd1-46" value="m" style="text;html=1;align=center;verticalAlign=middle;resizable=0;points=[];autosize=1;strokeColor=none;fillColor=none;labelBackgroundColor=none;fontColor=#143642;" parent="1" vertex="1">
          <mxGeometry x="495" y="408" width="30" height="30" as="geometry" />
        </mxCell>
        <mxCell id="7ODVU_EfmexJQ0koivd1-47" value="% percent of property onwed" style="ellipse;whiteSpace=wrap;html=1;labelBackgroundColor=none;fillColor=#FAE5C7;strokeColor=#0F8B8D;fontColor=#143642;" parent="1" vertex="1">
          <mxGeometry x="330" y="310" width="160" height="60" as="geometry" />
        </mxCell>
        <mxCell id="7ODVU_EfmexJQ0koivd1-50" value="" style="endArrow=none;html=1;rounded=0;exitX=0.5;exitY=1;exitDx=0;exitDy=0;labelBackgroundColor=none;strokeColor=#A8201A;fontColor=default;" parent="1" source="7ODVU_EfmexJQ0koivd1-47" edge="1">
          <mxGeometry width="50" height="50" relative="1" as="geometry">
            <mxPoint x="400" y="350" as="sourcePoint" />
            <mxPoint x="410" y="400" as="targetPoint" />
          </mxGeometry>
        </mxCell>
        <mxCell id="7ODVU_EfmexJQ0koivd1-51" value="List" style="rhombus;whiteSpace=wrap;html=1;labelBackgroundColor=none;fillColor=#FAE5C7;strokeColor=#0F8B8D;fontColor=#143642;" parent="1" vertex="1">
          <mxGeometry x="130" y="270" width="80" height="60" as="geometry" />
        </mxCell>
        <mxCell id="7ODVU_EfmexJQ0koivd1-52" value="" style="endArrow=none;html=1;rounded=0;entryX=0.5;entryY=1;entryDx=0;entryDy=0;labelBackgroundColor=none;strokeColor=#A8201A;fontColor=default;" parent="1" source="7ODVU_EfmexJQ0koivd1-51" target="7ODVU_EfmexJQ0koivd1-1" edge="1">
          <mxGeometry width="50" height="50" relative="1" as="geometry">
            <mxPoint x="400" y="350" as="sourcePoint" />
            <mxPoint x="450" y="300" as="targetPoint" />
          </mxGeometry>
        </mxCell>
        <mxCell id="7ODVU_EfmexJQ0koivd1-53" value="" style="endArrow=none;html=1;rounded=0;labelBackgroundColor=none;strokeColor=#A8201A;fontColor=default;exitX=0.377;exitY=0.869;exitDx=0;exitDy=0;exitPerimeter=0;entryX=0.392;entryY=0.035;entryDx=0;entryDy=0;entryPerimeter=0;" parent="1" source="7ODVU_EfmexJQ0koivd1-51" target="7ODVU_EfmexJQ0koivd1-8" edge="1">
          <mxGeometry width="50" height="50" relative="1" as="geometry">
            <mxPoint x="170" y="330" as="sourcePoint" />
            <mxPoint x="160" y="400" as="targetPoint" />
          </mxGeometry>
        </mxCell>
        <mxCell id="7ODVU_EfmexJQ0koivd1-54" value="1" style="text;html=1;align=center;verticalAlign=middle;resizable=0;points=[];autosize=1;strokeColor=none;fillColor=none;labelBackgroundColor=none;fontColor=#143642;" parent="1" vertex="1">
          <mxGeometry x="145" y="218" width="30" height="30" as="geometry" />
        </mxCell>
        <mxCell id="7ODVU_EfmexJQ0koivd1-55" value="m" style="text;html=1;align=center;verticalAlign=middle;resizable=0;points=[];autosize=1;strokeColor=none;fillColor=none;labelBackgroundColor=none;fontColor=#143642;" parent="1" vertex="1">
          <mxGeometry x="120" y="340" width="30" height="30" as="geometry" />
        </mxCell>
        <mxCell id="rmkjHl7DAO5uTL_sPLRn-8" value="" style="endArrow=none;html=1;rounded=0;entryX=0.142;entryY=0.596;entryDx=0;entryDy=0;entryPerimeter=0;" edge="1" parent="1" target="7ODVU_EfmexJQ0koivd1-18">
          <mxGeometry width="50" height="50" relative="1" as="geometry">
            <mxPoint x="230" y="170" as="sourcePoint" />
            <mxPoint x="380" y="290" as="targetPoint" />
          </mxGeometry>
        </mxCell>
        <mxCell id="rmkjHl7DAO5uTL_sPLRn-9" value="" style="endArrow=none;html=1;rounded=0;entryX=0.116;entryY=0.66;entryDx=0;entryDy=0;entryPerimeter=0;exitX=1;exitY=1;exitDx=0;exitDy=0;exitPerimeter=0;" edge="1" parent="1" source="7ODVU_EfmexJQ0koivd1-1" target="7ODVU_EfmexJQ0koivd1-31">
          <mxGeometry width="50" height="50" relative="1" as="geometry">
            <mxPoint x="220" y="190" as="sourcePoint" />
            <mxPoint x="380" y="290" as="targetPoint" />
          </mxGeometry>
        </mxCell>
        <mxCell id="rmkjHl7DAO5uTL_sPLRn-12" value="" style="endArrow=none;html=1;rounded=0;labelBackgroundColor=none;strokeColor=#A8201A;fontColor=default;exitX=0.5;exitY=1;exitDx=0;exitDy=0;entryX=0.5;entryY=0;entryDx=0;entryDy=0;" edge="1" parent="1" source="7ODVU_EfmexJQ0koivd1-51" target="7ODVU_EfmexJQ0koivd1-8">
          <mxGeometry width="50" height="50" relative="1" as="geometry">
            <mxPoint x="183" y="340" as="sourcePoint" />
            <mxPoint x="170" y="400" as="targetPoint" />
          </mxGeometry>
        </mxCell>
        <mxCell id="rmkjHl7DAO5uTL_sPLRn-13" value="" style="endArrow=none;html=1;rounded=0;" edge="1" parent="1">
          <mxGeometry width="50" height="50" relative="1" as="geometry">
            <mxPoint x="50" y="120" as="sourcePoint" />
            <mxPoint x="80" y="120" as="targetPoint" />
            <Array as="points">
              <mxPoint x="30" y="120" />
            </Array>
          </mxGeometry>
        </mxCell>
        <mxCell id="rmkjHl7DAO5uTL_sPLRn-14" value="" style="endArrow=none;html=1;rounded=0;" edge="1" parent="1">
          <mxGeometry width="50" height="50" relative="1" as="geometry">
            <mxPoint x="560" y="100" as="sourcePoint" />
            <mxPoint x="590" y="100" as="targetPoint" />
            <Array as="points">
              <mxPoint x="540" y="100" />
            </Array>
          </mxGeometry>
        </mxCell>
        <mxCell id="rmkjHl7DAO5uTL_sPLRn-15" value="" style="endArrow=none;html=1;rounded=0;" edge="1" parent="1">
          <mxGeometry width="50" height="50" relative="1" as="geometry">
            <mxPoint x="50" y="510.3299999999999" as="sourcePoint" />
            <mxPoint x="80" y="510.3299999999999" as="targetPoint" />
            <Array as="points">
              <mxPoint x="30" y="510.3299999999999" />
              <mxPoint x="65" y="510" />
            </Array>
          </mxGeometry>
        </mxCell>
        <mxCell id="rmkjHl7DAO5uTL_sPLRn-16" value="" style="endArrow=none;html=1;rounded=0;" edge="1" parent="1">
          <mxGeometry width="50" height="50" relative="1" as="geometry">
            <mxPoint x="545" y="550.3299999999999" as="sourcePoint" />
            <mxPoint x="575" y="550.3299999999999" as="targetPoint" />
            <Array as="points">
              <mxPoint x="525" y="550.3299999999999" />
              <mxPoint x="560" y="550" />
            </Array>
          </mxGeometry>
        </mxCell>
      </root>
    </mxGraphModel>
  </diagram>
</mxfile>
